# 3ds Max Wavefront OBJ Exporter v0.97b - (c)2007 guruware
# File Created: 15.02.2018 22:00:37

#
# object Cylinder007
#

v  407.5267 -102.0380 30.6244
v  409.7614 -102.0252 29.2344
v  409.8686 -100.4725 29.4466
v  407.3084 -100.4924 31.0143
v  409.7614 -102.0252 26.3422
v  409.8699 -100.4751 26.1328
v  407.5267 -102.0380 24.9522
v  407.2984 -100.5006 24.5578
v  409.8822 -98.4015 29.6083
v  407.1045 -99.2790 31.3488
v  409.8918 -98.3929 25.9726
v  407.0793 -99.2739 24.2374
v  409.7316 -94.4623 34.7849
v  407.0155 -94.8909 35.8260
v  409.7396 -88.6549 34.8163
v  406.9945 -88.2234 35.8700
v  409.7396 -84.5511 30.7456
v  406.9945 -83.5009 31.1856
v  409.7396 -84.5277 24.9654
v  406.9945 -83.4740 24.5340
v  409.7396 -88.5983 20.8617
v  406.9342 -88.2202 19.7676
v  409.7489 -94.3924 20.8493
v  406.9341 -94.7481 19.7412
v  415.4995 -91.5167 27.8273
v  412.9437 -93.6724 32.9725
v  412.9269 -96.6909 29.9558
v  412.9437 -89.4028 32.9898
v  412.9437 -86.3714 29.9830
v  412.9437 -86.3541 25.7133
v  412.9437 -89.3610 22.6820
v  412.9366 -93.6482 22.6646
v  412.9151 -96.6751 25.6348
v  401.9942 -92.6460 19.5471
v  402.0041 -90.3025 19.5488
v  390.3098 -92.6491 17.9597
v  390.3191 -90.3004 17.9613
v  374.6889 -93.5232 14.9874
v  374.7045 -89.4257 14.9931
v  363.6249 -94.7744 13.0356
v  363.6500 -88.1744 13.0447
v  361.7646 -92.6264 12.7091
v  361.7734 -90.3223 12.7123
v  409.3472 -100.4083 29.1441
v  409.2332 -101.9492 28.9467
v  407.2268 -101.9492 30.1051
v  406.9988 -100.4083 30.4999
v  409.3472 -100.4083 26.4325
v  409.2332 -101.9492 26.6299
v  406.9988 -100.4083 25.0767
v  407.2268 -101.9492 25.4715
v  409.4640 -98.0492 29.3464
v  406.7625 -99.0411 30.9083
v  409.4640 -98.0492 26.2302
v  406.7625 -99.0159 24.6854
v  406.7625 -94.6586 35.3265
v  409.4694 -94.2253 34.2923
v  406.7625 -88.4356 35.3517
v  409.4694 -88.8605 34.3141
v  406.7625 -84.0175 30.9692
v  409.4694 -85.0516 30.5359
v  406.7625 -83.9923 24.7462
v  409.4694 -85.0299 25.1711
v  406.7625 -88.3748 20.3281
v  409.4694 -88.8080 21.3622
v  406.7625 -94.5978 20.3029
v  409.4694 -94.1729 21.3405
v  412.5118 -96.2855 29.7800
v  412.5118 -93.5080 32.5801
v  414.8933 -91.5167 27.8273
v  412.5118 -89.5640 32.5961
v  412.5118 -86.7638 29.8186
v  412.5118 -86.7479 25.8746
v  412.5118 -89.5254 23.0744
v  412.5118 -93.4694 23.0584
v  412.5118 -96.2695 25.8360
v  401.9462 -92.6469 20.1515
v  401.9556 -90.3027 20.1531
v  390.2120 -92.6491 18.5580
v  390.2214 -90.3005 18.5596
v  374.5798 -93.5236 15.5838
v  374.5954 -89.4261 15.5894
v  363.5196 -94.7748 13.6326
v  363.5447 -88.1748 13.6418
v  361.6594 -92.6269 13.3062
v  361.6681 -90.3228 13.3093
# 86 vertices

vn -0.1705 -0.7130 0.6801
vn 0.6419 -0.6922 0.3300
vn 0.8687 -0.0842 0.4882
vn -0.2293 -0.2817 0.9317
vn 0.6416 -0.6922 -0.3304
vn 0.8687 -0.0856 -0.4878
vn -0.1680 -0.7147 -0.6790
vn -0.2367 -0.2788 -0.9307
vn 0.7086 -0.5635 0.4247
vn -0.2384 -0.5231 0.8183
vn 0.7076 -0.5623 -0.4279
vn -0.2721 -0.5116 -0.8150
vn 0.4450 -0.3983 0.8021
vn -0.3195 -0.3727 0.8712
vn 0.4476 0.3380 0.8279
vn -0.3329 0.3560 0.8732
vn 0.4475 0.8248 0.3456
vn -0.3325 0.8698 0.3644
vn 0.4475 0.8276 -0.3389
vn -0.3309 0.8734 -0.3574
vn 0.4462 0.3486 -0.8243
vn -0.1045 0.5473 -0.8304
vn 0.4430 -0.3940 -0.8053
vn -0.1064 -0.5418 -0.8337
vn 1.0000 -0.0009 -0.0002
vn 0.7151 -0.2687 0.6453
vn 0.6630 -0.6745 0.3249
vn 0.7149 0.2649 0.6470
vn 0.7149 0.6449 0.2702
vn 0.7149 0.6470 -0.2649
vn 0.7150 0.2697 -0.6450
vn 0.7150 -0.2651 -0.6469
vn 0.6632 -0.6707 -0.3321
vn -0.0708 -0.6532 -0.7539
vn -0.0682 0.6543 -0.7531
vn 0.1334 -0.7066 -0.6949
vn 0.1332 0.7067 -0.6949
vn 0.1857 -0.6963 -0.6933
vn 0.1856 0.6973 -0.6924
vn -0.1728 -0.7339 -0.6569
vn -0.1712 0.7352 -0.6559
vn -0.6018 -0.2706 -0.7514
vn -0.5999 0.2759 -0.7510
vn -0.8601 0.1059 -0.4990
vn -0.5789 -0.7499 -0.3201
vn -0.7680 -0.5428 -0.3398
vn -0.9550 -0.0716 -0.2879
vn -0.8601 0.1059 0.4991
vn -0.5789 -0.7499 0.3201
vn -0.9532 -0.0719 0.2937
vn -0.7679 -0.5429 0.3399
vn -0.7009 0.5817 -0.4128
vn -0.9586 0.0782 -0.2739
vn -0.7007 0.5777 0.4187
vn -0.9507 0.0887 0.2973
vn -0.9815 0.0781 -0.1750
vn -0.4439 0.3978 -0.8029
vn -0.9768 -0.0812 -0.1982
vn -0.4456 -0.3392 -0.8284
vn -0.9768 -0.1976 -0.0828
vn -0.4456 -0.8257 -0.3459
vn -0.9768 -0.1982 0.0812
vn -0.4456 -0.8284 0.3392
vn -0.7301 0.2478 0.6368
vn -0.4456 -0.3459 0.8257
vn -0.7308 -0.2528 0.6340
vn -0.4440 0.3896 0.8069
vn -0.6627 0.6730 -0.3285
vn -0.7124 0.2712 -0.6473
vn -1.0000 -0.0000 -0.0000
vn -0.7124 -0.2659 -0.6494
vn -0.7124 -0.6473 -0.2712
vn -0.7124 -0.6494 0.2659
vn -0.7124 -0.2712 0.6473
vn -0.7124 0.2659 0.6494
vn -0.6654 0.6685 0.3322
vn -0.1831 -0.6354 0.7502
vn -0.1839 0.6355 0.7499
vn -0.0971 -0.6947 0.7128
vn -0.0969 0.6946 0.7129
vn -0.0708 -0.7003 0.7104
vn -0.0709 0.6993 0.7113
vn -0.3869 -0.7348 0.5572
vn -0.3854 0.7343 0.5589
vn -0.8224 -0.2715 0.4999
vn -0.8207 0.2751 0.5008
# 86 vertex normals

vt 14.5341 -0.0000 1.0000
vt 11.3043 -0.0000 1.0000
vt 11.3043 -2.5870 1.0000
vt 14.5341 -2.5870 1.0000
vt 8.0745 -0.0000 1.0000
vt 8.0745 -2.5870 1.0000
vt 4.8447 -0.0000 1.0000
vt 4.8447 -2.5870 1.0000
vt 11.3043 -5.1739 1.0000
vt 14.5341 -5.1739 1.0000
vt 8.0745 -5.1739 1.0000
vt 4.8447 -5.1739 1.0000
vt 0.0000 9.7652 0.0000
vt 6.3859 9.7652 0.0000
vt 6.3859 12.7718 0.0000
vt 0.0000 12.7718 0.0000
vt 12.7718 9.7652 0.0000
vt 12.7718 12.7718 0.0000
vt 19.1577 9.7652 0.0000
vt 19.1577 12.7718 0.0000
vt 25.5437 9.7652 0.0000
vt 25.5437 12.7718 0.0000
vt 31.9296 9.7652 0.0000
vt 31.9296 12.7718 0.0000
vt 38.3155 9.7652 0.0000
vt 38.3155 12.7718 0.0000
vt 44.7014 9.7652 0.0000
vt 44.7014 12.7718 0.0000
vt 0.0000 0.0000 0.0000
vt 6.3859 6.3859 0.0000
vt 0.0000 6.3859 0.0000
vt 6.3859 0.0000 0.0000
vt 12.7718 6.3859 0.0000
vt 12.7718 0.0000 0.0000
vt 19.1577 6.3859 0.0000
vt 19.1577 0.0000 0.0000
vt 25.5437 6.3859 0.0000
vt 25.5437 0.0000 0.0000
vt 31.9296 6.3859 0.0000
vt 31.9296 0.0000 0.0000
vt 38.3155 6.3859 0.0000
vt 38.3155 0.0000 0.0000
vt 44.7014 6.3859 0.0000
vt 44.7014 0.0000 0.0000
vt 51.0873 6.3859 0.0000
vt 7.6911 0.2687 0.5292
vt 23.6102 0.2687 0.5292
# 47 texture coords

o Cylinder007
g Cylinder007
s 8
f 1/1/1 2/2/2 3/3/3 4/4/4 
f 2/2/2 5/5/5 6/6/6 3/3/3 
f 5/5/5 7/7/7 8/8/8 6/6/6 
f 4/4/4 3/3/3 9/9/9 10/10/10 
f 3/3/3 6/6/6 11/11/11 9/9/9 
f 6/6/6 8/8/8 12/12/12 11/11/11 
s 1
f 9/13/9 13/14/13 14/15/14 10/16/10 
f 13/14/13 15/17/15 16/18/16 14/15/14 
f 15/17/15 17/19/17 18/20/18 16/18/16 
f 17/19/17 19/21/19 20/22/20 18/20/18 
f 19/21/19 21/23/21 22/24/22 20/22/20 
f 21/23/21 23/25/23 24/26/24 22/24/22 
f 23/25/23 11/27/11 12/28/12 24/26/24 
f 25/29/25 26/30/26 27/31/27 
f 25/32/25 28/33/28 26/30/26 
f 25/34/25 29/35/29 28/33/28 
f 25/36/25 30/37/30 29/35/29 
f 25/38/25 31/39/31 30/37/30 
f 25/40/25 32/41/32 31/39/31 
f 25/42/25 33/43/33 32/41/32 
f 25/44/25 27/45/27 33/43/33 
f 27/31/27 26/30/26 13/14/13 9/13/9 
f 26/30/26 28/33/28 15/17/15 13/14/13 
f 28/33/28 29/35/29 17/19/17 15/17/15 
f 29/35/29 30/37/30 19/21/19 17/19/17 
f 30/37/30 31/39/31 21/23/21 19/21/19 
f 31/39/31 32/41/32 23/25/23 21/23/21 
f 32/41/32 33/43/33 11/27/11 23/25/23 
s off
f 33/43/33 27/31/27 9/46/9 11/47/11 
f 22/20/22 24/22/24 34/22/34 35/20/35 
f 35/20/35 34/22/34 36/22/36 37/20/37 
f 37/20/37 36/22/36 38/22/38 39/20/39 
f 39/20/39 38/22/38 40/22/40 41/20/41 
f 41/20/41 40/22/40 42/22/42 43/20/43 
s 8
f 44/3/44 45/2/45 46/1/46 47/4/47 
f 48/6/48 49/5/49 45/2/45 44/3/44 
f 50/8/50 51/7/51 49/5/49 48/6/48 
f 52/9/52 44/3/44 47/4/47 53/10/53 
f 54/11/54 48/6/48 44/3/44 52/9/52 
f 55/12/55 50/8/50 48/6/48 54/11/54 
s 1
f 56/15/56 57/14/57 52/13/52 53/16/53 
f 58/18/58 59/17/59 57/14/57 56/15/56 
f 60/20/60 61/19/61 59/17/59 58/18/58 
f 62/22/62 63/21/63 61/19/61 60/20/60 
f 64/24/64 65/23/65 63/21/63 62/22/62 
f 66/26/66 67/25/67 65/23/65 64/24/64 
f 55/28/55 54/27/54 67/25/67 66/26/66 
f 68/31/68 69/30/69 70/29/70 
f 69/30/69 71/33/71 70/32/70 
f 71/33/71 72/35/72 70/34/70 
f 72/35/72 73/37/73 70/36/70 
f 73/37/73 74/39/74 70/38/70 
f 74/39/74 75/41/75 70/40/70 
f 75/41/75 76/43/76 70/42/70 
f 76/43/76 68/45/68 70/44/70 
f 57/14/57 69/30/69 68/31/68 52/13/52 
f 59/17/59 71/33/71 69/30/69 57/14/57 
f 61/19/61 72/35/72 71/33/71 59/17/59 
f 63/21/63 73/37/73 72/35/72 61/19/61 
f 65/23/65 74/39/74 73/37/73 63/21/63 
f 67/25/67 75/41/75 74/39/74 65/23/65 
f 54/27/54 76/43/76 75/41/75 67/25/67 
s off
f 52/46/52 68/31/68 76/43/76 54/47/54 
f 77/22/77 66/22/66 64/20/64 78/20/78 
f 79/22/79 77/22/77 78/20/78 80/20/80 
f 81/22/81 79/22/79 80/20/80 82/20/82 
f 83/22/83 81/22/81 82/20/82 84/20/84 
f 85/22/85 83/22/83 84/20/84 86/20/86 
s 1
f 2/2/2 1/1/1 46/1/46 45/2/45 
s 2
f 1/1/1 4/4/4 47/4/47 46/1/46 
s 1
f 5/5/5 2/2/2 45/2/45 49/5/49 
f 7/7/7 5/5/5 49/5/49 51/7/51 
s 2
f 8/8/8 7/7/7 51/7/51 50/8/50 
f 4/4/4 10/10/10 53/10/53 47/4/47 
f 12/12/12 8/8/8 50/8/50 55/12/55 
f 10/16/10 14/15/14 56/15/56 53/16/53 
f 14/15/14 16/18/16 58/18/58 56/15/56 
f 16/18/16 18/20/18 60/20/60 58/18/58 
f 18/20/18 20/22/20 62/22/62 60/20/60 
f 20/22/20 22/24/22 64/24/64 62/22/62 
f 24/26/24 12/28/12 55/28/55 66/26/66 
s 1
f 34/22/34 24/22/24 66/22/66 77/22/77 
f 22/20/22 35/20/35 78/20/78 64/20/64 
f 36/22/36 34/22/34 77/22/77 79/22/79 
f 35/20/35 37/20/37 80/20/80 78/20/78 
f 38/22/38 36/22/36 79/22/79 81/22/81 
f 37/20/37 39/20/39 82/20/82 80/20/80 
f 40/22/40 38/22/38 81/22/81 83/22/83 
f 39/20/39 41/20/41 84/20/84 82/20/82 
s 2
f 42/22/42 40/22/40 83/22/83 85/22/85 
f 43/20/43 42/22/42 85/22/85 86/20/86 
f 41/20/41 43/20/43 86/20/86 84/20/84 
# 76 polygons - 16 triangles

