# 3ds Max Wavefront OBJ Exporter v0.97b - (c)2007 guruware
# File Created: 18.10.2017 13:16:31

mtllib 869094.mtl

#
# object Plane027
#

v  77.3222 14.9837 -23.7861
v  77.3222 14.9837 -23.0535
v  77.2353 16.7370 -23.0535
v  77.2353 16.7370 -23.6838
v  77.1955 18.4742 -23.0535
v  77.1955 18.4742 -23.6155
v  77.2424 25.0511 -23.0535
v  77.2424 25.0511 -23.5941
v  77.3943 28.0504 -23.0535
v  77.3943 28.0504 -23.5668
v  77.5573 34.5714 -23.0535
v  77.5573 34.5714 -23.5357
v  78.3905 55.7844 -23.0535
v  78.3905 55.7844 -23.7783
v  78.3341 59.4673 -23.0535
v  78.3341 59.4673 -23.7508
v  78.3435 60.1116 -23.0535
v  78.3435 60.1116 -23.6609
v  78.3631 60.5740 -23.0535
v  78.3631 60.5740 -23.5123
v  78.3675 60.7415 -23.0535
v  78.3675 60.7415 -23.3987
v  78.3710 60.8767 -23.0535
v  78.3710 60.8767 -23.5192
v  77.3222 14.9837 -22.3209
v  77.5786 13.0772 -23.0535
v  77.5786 13.0772 -22.1579
v  77.9634 11.4348 -23.0535
v  77.9634 11.4348 -22.0371
v  78.3535 8.2677 -23.0535
v  78.3535 8.2677 -21.8109
v  78.3026 6.4569 -23.0535
v  78.3026 6.4569 -21.4600
v  77.3956 2.8277 -23.1280
v  77.3454 3.5104 -20.8021
v  76.8713 1.5240 -23.0986
v  76.6213 1.6346 -20.8505
v  75.9780 0.1546 -23.1688
v  75.8490 0.6493 -20.7000
v  75.2718 -0.6928 -23.2256
v  74.9322 -0.1523 -20.6191
v  74.7329 -1.2146 -23.2412
v  74.2581 -0.8176 -20.5503
v  73.8708 -1.8918 -23.2750
v  73.5001 -1.4137 -20.4678
v  72.5989 -2.4405 -23.3568
v  72.2978 -1.9896 -20.3920
v  70.9853 -2.1071 -20.3927
v  71.0972 -2.6229 -23.2838
v  70.1229 -2.5888 -23.2872
v  70.1319 -1.9930 -20.4415
v  69.2124 -2.4200 -23.2456
v  69.1860 -1.6888 -20.5255
v  68.2973 -2.1553 -23.2222
v  68.0895 -1.4881 -20.5660
v  67.5035 -1.8025 -23.1638
v  67.3234 -1.2163 -20.7808
v  66.6779 -1.3047 -23.0880
v  66.5804 -0.7154 -20.9978
v  65.6196 -0.5649 -23.0557
v  65.5999 -0.2218 -21.3870
v  64.8420 0.1562 -23.0865
v  64.8636 0.1944 -21.6791
v  64.1085 0.8985 -23.0939
v  64.0964 0.8956 -22.1481
v  63.4880 1.7984 -23.0535
v  63.4880 1.7984 -22.5983
v  63.0981 2.8114 -23.0535
v  63.0981 2.8114 -23.0194
v  70.6930 -1.5020 -28.5740
v  72.3320 -1.2478 -28.5592
v  77.3222 14.9837 -21.5883
v  77.3222 14.9837 -20.8557
v  77.2353 16.7370 -21.1625
v  77.2353 16.7370 -21.7928
v  77.2353 16.7370 -22.4231
v  77.2353 16.7370 -24.3141
v  77.2353 16.7370 -24.9445
v  77.3222 14.9837 -25.2513
v  77.3222 14.9837 -24.5187
v  77.1955 18.4742 -21.3675
v  77.1955 18.4742 -21.9295
v  77.1955 18.4742 -22.4915
v  77.1955 18.4742 -24.1775
v  77.1955 18.4742 -24.7395
v  77.2424 25.0511 -21.4317
v  77.2424 25.0511 -21.9723
v  77.2424 25.0511 -22.5129
v  77.2424 25.0511 -24.1347
v  77.2424 25.0511 -24.6753
v  77.3943 28.0504 -21.5135
v  77.3943 28.0504 -22.0268
v  77.3943 28.0504 -22.5401
v  77.3943 28.0504 -24.0801
v  77.3943 28.0504 -24.5935
v  77.5573 34.5714 -21.6068
v  77.5573 34.5714 -22.0890
v  77.5573 34.5714 -22.5712
v  77.5573 34.5714 -24.0180
v  77.5573 34.5714 -24.5002
v  78.3905 55.7844 -20.8790
v  78.3905 55.7844 -21.6038
v  78.3905 55.7844 -22.3286
v  78.3905 55.7844 -24.5032
v  78.3905 55.7844 -25.2280
v  78.3341 59.4673 -20.9616
v  78.3341 59.4673 -21.6589
v  78.3341 59.4673 -22.3562
v  78.3341 59.4673 -24.4480
v  78.3341 59.4673 -25.1453
v  78.3435 60.1116 -21.2311
v  78.3435 60.1116 -21.8386
v  78.3435 60.1116 -22.4460
v  78.3435 60.1116 -24.2684
v  78.3435 60.1116 -24.8758
v  78.3631 60.5740 -21.6770
v  78.3631 60.5740 -22.1359
v  78.3631 60.5740 -22.5947
v  78.3631 60.5740 -23.9711
v  78.3631 60.5740 -24.4299
v  78.3675 60.7415 -22.0177
v  78.3675 60.7415 -22.3630
v  78.3675 60.7415 -22.7082
v  78.3675 60.7415 -23.7440
v  78.3675 60.7415 -24.0892
v  78.3710 60.8767 -22.8113
v  78.3710 60.8767 -22.8920
v  78.3710 60.8767 -22.9728
v  78.3710 60.8767 -23.2149
v  78.3710 60.8767 -23.2956
v  77.5786 13.0772 -25.7403
v  77.5786 13.0772 -24.8447
v  77.5786 13.0772 -23.9491
v  77.5786 13.0772 -21.2622
v  77.5786 13.0772 -20.3666
v  77.9634 11.4348 -26.1026
v  77.9634 11.4348 -25.0862
v  77.9634 11.4348 -24.0698
v  77.9634 11.4348 -21.0207
v  77.9634 11.4348 -20.0044
v  78.3535 8.2677 -26.7811
v  78.3535 8.2677 -25.5386
v  78.3535 8.2677 -24.2960
v  78.3535 8.2677 -20.5684
v  78.3535 8.2677 -19.3259
v  78.3026 6.4569 -27.8338
v  78.3026 6.4569 -26.2404
v  78.3026 6.4569 -24.6469
v  78.3026 6.4569 -19.8666
v  78.3026 6.4569 -18.2731
v  76.6857 6.0734 -29.4166
v  76.8292 5.3160 -27.3204
v  77.4871 3.2393 -25.2242
v  77.1839 4.0235 -19.2706
v  76.4683 6.0213 -16.8394
v  75.7053 5.8381 -30.8923
v  75.9948 4.5464 -28.4400
v  76.6034 1.9254 -25.9876
v  76.3876 2.5661 -19.0232
v  75.5882 5.8100 -16.1780
v  74.8333 5.6341 -32.3105
v  75.1028 3.9271 -29.5220
v  75.9929 1.0457 -26.7335
v  75.4250 1.8496 -18.6905
v  74.4167 5.5287 -15.5793
v  74.0307 5.4360 -34.0530
v  74.2897 3.3944 -30.7477
v  75.2420 0.3053 -27.5601
v  74.4455 1.0012 -18.4299
v  73.2178 5.2409 -15.0732
v  73.7370 4.5893 -35.0047
v  73.8288 2.9721 -31.4482
v  74.6294 -0.2204 -27.9926
v  73.5959 0.3602 -18.0710
v  72.1086 4.9746 -14.9187
v  73.2329 3.5733 -35.2985
v  73.2495 2.4671 -32.1343
v  73.6854 -0.7939 -28.3156
v  72.7425 -0.0086 -17.8971
v  71.1793 4.7518 -14.8437
v  71.5399 2.0491 -35.3974
v  71.7676 1.0664 -31.9783
v  71.7516 -0.2709 -17.7859
v  70.4541 4.5774 -14.8830
v  69.6647 1.6035 -31.9869
v  69.2913 2.5264 -35.2977
v  68.3836 3.1303 -35.0053
v  68.7854 1.7416 -31.4722
v  69.6965 -1.4456 -28.4238
v  69.8273 -0.3248 -17.9346
v  68.9454 4.2152 -15.1517
v  69.7289 4.4033 -14.9223
v  70.6970 -0.2679 -17.7998
v  67.7023 3.9055 -34.0473
v  68.1452 1.8958 -30.6010
v  68.7954 -1.3561 -28.2408
v  68.8329 -0.2525 -18.2108
v  67.9971 3.9875 -15.5163
v  66.9539 3.7370 -31.1918
v  67.3566 1.9818 -29.5517
v  67.9248 -1.1838 -27.5493
v  67.9129 -0.1079 -18.5859
v  67.0060 3.7496 -15.9944
v  66.3277 3.5867 -30.1780
v  66.6599 2.0391 -28.9209
v  67.3528 -1.0111 -27.0433
v  66.9758 0.0676 -18.8922
v  66.1045 3.5331 -16.6675
v  65.6623 3.4270 -29.1863
v  65.9491 2.0653 -28.1422
v  66.5771 -0.7176 -26.3187
v  66.1863 0.4086 -19.4632
v  65.4346 3.3723 -17.2817
v  64.6508 3.1841 -27.7957
v  65.0333 2.0487 -26.9350
v  65.5199 -0.1621 -25.3015
v  65.2918 0.8120 -20.0083
v  64.8372 3.2289 -18.0132
v  64.2044 3.0769 -26.9849
v  64.4384 2.0679 -25.9927
v  64.7983 0.3155 -24.6014
v  64.6489 1.1494 -20.5118
v  64.1578 3.0658 -19.0263
v  63.6554 2.9452 -25.7376
v  63.8239 2.1904 -24.9878
v  64.1018 0.9794 -23.9429
v  63.9347 1.5159 -21.1890
v  63.5830 2.9278 -20.3534
v  63.2368 2.8447 -24.4191
v  63.3813 2.2428 -24.1822
v  63.4880 1.7984 -23.5087
v  63.4176 2.0916 -22.0380
v  63.2368 2.8447 -21.6878
v  63.0981 2.8114 -23.1558
v  63.0981 2.8114 -23.1217
v  63.0981 2.8114 -23.0876
v  63.0981 2.8114 -22.9853
v  63.0981 2.8114 -22.9511
# 238 vertices

vn -0.9958 -0.0915 0.0000
vn -0.9993 -0.0362 0.0000
vn -1.0000 -0.0079 0.0000
vn -0.9996 0.0289 0.0000
vn -0.9993 0.0378 0.0000
vn -0.9995 0.0321 0.0000
vn -0.9999 0.0120 0.0000
vn -1.0000 -0.0003 0.0000
vn -0.9996 0.0284 0.0000
vn -0.9994 0.0342 0.0000
vn -0.9997 0.0262 0.0000
vn -0.9997 0.0261 0.0000
vn 0.9724 0.2334 -0.0000
vn -0.9835 -0.1809 0.0000
vn -0.9845 -0.1754 0.0000
vn -0.9989 -0.0472 0.0000
vn -0.9907 0.1361 0.0000
vn -0.9854 0.1703 0.0000
vn -0.9472 0.3175 -0.0453
vn -0.9342 0.3178 -0.1621
vn -0.8860 0.4636 0.0096
vn -0.8467 0.4820 -0.2254
vn -0.8004 0.5995 -0.0092
vn -0.7027 0.6296 -0.3313
vn -0.7291 0.6835 -0.0343
vn -0.6553 0.6674 -0.3539
vn -0.6558 0.7545 -0.0270
vn -0.6392 0.6871 -0.3455
vn -0.5093 0.8606 -0.0056
vn -0.5109 0.7758 -0.3703
vn -0.2627 0.9642 0.0355
vn -0.2530 0.8924 -0.3737
vn 0.0289 0.9235 -0.3825
vn -0.0450 0.9989 0.0134
vn 0.1061 0.9943 0.0048
vn 0.2253 0.9033 -0.3650
vn 0.2260 0.9735 -0.0357
vn 0.2520 0.8946 -0.3690
vn 0.3361 0.9417 -0.0122
vn 0.2876 0.8770 -0.3848
vn 0.4562 0.8898 -0.0117
vn 0.4894 0.8190 -0.2996
vn 0.5396 0.8409 -0.0413
vn 0.5615 0.7710 -0.3005
vn 0.6230 0.7819 -0.0222
vn 0.5364 0.7907 -0.2951
vn 0.6951 0.7188 0.0130
vn 0.6260 0.7463 -0.2261
vn 0.7686 0.6388 0.0336
vn 0.7707 0.6280 -0.1082
vn 0.8844 0.4667 -0.0000
vn 0.8879 0.4568 -0.0543
vn 0.9333 0.3592 -0.0000
vn -0.0171 0.8876 0.4603
vn -0.2509 0.8764 0.4111
vn -0.9953 -0.0970 0.0000
vn -0.9993 -0.0374 0.0000
vn -1.0000 -0.0085 0.0000
vn -0.9996 0.0286 0.0000
vn -0.9993 0.0380 0.0000
vn -0.9995 0.0322 0.0000
vn -0.9999 0.0119 0.0000
vn -1.0000 -0.0026 0.0000
vn -0.9997 0.0226 0.0000
vn -0.9992 0.0396 0.0000
vn -0.9822 -0.1879 0.0000
vn -0.9857 -0.1683 0.0000
vn -0.9995 -0.0312 0.0000
vn -0.5670 0.8237 0.0000
vn -0.8916 0.4529 0.0000
vn -0.9905 0.1377 0.0000
vn -0.9738 0.2275 0.0000
vn -0.5794 0.8150 0.0000
vn -0.5965 0.7409 0.3086
vn -0.7905 0.4473 0.4183
vn -0.9129 0.3281 0.2428
vn -0.8578 0.3594 -0.3674
vn -0.5904 0.5297 -0.6090
vn -0.7385 0.5567 0.3804
vn -0.8319 0.3634 0.4193
vn -0.8741 0.3761 0.3073
vn -0.7192 0.4829 -0.4996
vn -0.5333 0.4797 -0.6968
vn -0.8219 0.4470 0.3530
vn -0.8293 0.3467 0.4383
vn -0.8502 0.4163 0.3222
vn -0.6035 0.5201 -0.6044
vn -0.4571 0.4980 -0.7370
vn -0.9476 0.2332 0.2183
vn -0.8554 0.3301 0.3991
vn -0.7829 0.5007 0.3692
vn -0.6215 0.5137 -0.5915
vn -0.3299 0.5254 -0.7843
vn -0.9369 0.3084 0.1644
vn -0.8418 0.4055 0.3564
vn -0.6557 0.6378 0.4040
vn -0.5106 0.5644 -0.6486
vn -0.2111 0.5041 -0.8375
vn -0.8049 0.5588 0.1996
vn -0.7204 0.6039 0.3410
vn -0.4613 0.7821 0.4189
vn -0.3243 0.6332 -0.7028
vn -0.1298 0.5048 -0.8534
vn -0.2512 0.9257 0.2828
vn -0.2074 0.8649 0.4570
vn -0.1196 0.6749 -0.7281
vn -0.0728 0.4979 -0.8642
vn 0.2934 0.8747 0.3858
vn 0.4115 0.8889 0.2014
vn 0.6986 0.6894 0.1916
vn 0.5154 0.7640 0.3881
vn 0.1482 0.8719 0.4667
vn 0.1485 0.7020 -0.6965
vn 0.1469 0.5375 -0.8304
vn 0.0125 0.5263 -0.8502
vn 0.0385 0.6808 -0.7314
vn 0.8267 0.5257 0.2003
vn 0.6630 0.6213 0.4177
vn 0.3369 0.8002 0.4962
vn 0.2955 0.7091 -0.6402
vn 0.2099 0.5535 -0.8059
vn 0.8090 0.4896 0.3254
vn 0.6411 0.5460 0.5393
vn 0.5215 0.7477 0.4110
vn 0.3516 0.6928 -0.6296
vn 0.3030 0.5795 -0.7565
vn 0.6631 0.5525 0.5049
vn 0.6086 0.5454 0.5764
vn 0.5793 0.7235 0.3754
vn 0.4729 0.6713 -0.5707
vn 0.4359 0.5613 -0.7036
vn 0.6449 0.5459 0.5349
vn 0.6558 0.5272 0.5403
vn 0.6228 0.7067 0.3358
vn 0.5994 0.6493 -0.4681
vn 0.5017 0.5917 -0.6310
vn 0.6241 0.5945 0.5070
vn 0.6884 0.5474 0.4758
vn 0.6744 0.6772 0.2943
vn 0.6241 0.6295 -0.4629
vn 0.5945 0.5754 -0.5616
vn 0.6902 0.5824 0.4295
vn 0.7366 0.5307 0.4192
vn 0.7230 0.6494 0.2358
vn 0.6804 0.5886 -0.4365
vn 0.6862 0.5473 -0.4792
vn 0.7664 0.5307 0.3620
vn 0.7538 0.5305 0.3877
vn 0.7928 0.5794 0.1890
vn 0.7789 0.5280 -0.3384
vn 0.8403 0.4155 -0.3482
vn 0.9205 0.3130 0.2337
vn 0.8479 0.4603 0.2631
vn 0.8754 0.4778 0.0733
vn 0.9048 0.3888 -0.1737
vn 0.9262 0.3171 -0.2038
vn -0.2334 0.9724 0.0000
vn 0.8951 0.4458 -0.0000
vn 0.9140 0.4057 -0.0000
# 159 vertex normals

vt 0.0000 2.9304 0.0000
vt 0.0000 2.1978 0.0000
vt 1.2043 2.1978 0.0000
vt 1.2043 2.9304 0.0000
vt 0.0000 1.4652 0.0000
vt 0.0000 0.7326 0.0000
vt 0.0000 0.0000 0.0000
vt 1.2043 0.0000 0.0000
vt 1.2043 0.7326 0.0000
vt 1.2043 1.4652 0.0000
vt 1.2043 3.6630 0.0000
vt 1.2043 4.3956 0.0000
vt 0.0000 4.3956 0.0000
vt 0.0000 3.6630 0.0000
# 14 texture coords

o Plane027
g Plane027
usemtl 01___Default
s 1
f 1/1/1 2/2/1 3/3/2 4/4/2 
s off
f 4/4/2 3/3/2 5/3/3 6/4/3 
f 6/4/3 5/3/3 7/3/4 8/4/4 
f 8/4/4 7/3/4 9/3/5 10/4/5 
f 10/4/5 9/3/5 11/3/6 12/4/6 
f 12/4/6 11/3/6 13/3/7 14/4/7 
f 14/4/7 13/3/7 15/3/8 16/4/8 
f 16/4/8 15/3/8 17/3/9 18/4/9 
f 18/4/9 17/3/9 19/3/10 20/4/10 
f 20/4/10 19/3/10 21/3/11 22/4/11 
f 22/4/11 21/3/11 23/3/12 24/4/13 
f 25/5/1 2/2/1 26/2/14 27/5/14 
f 27/5/14 26/2/14 28/2/15 29/5/15 
f 29/5/15 28/2/15 30/2/16 31/5/16 
f 31/5/16 30/2/16 32/2/17 33/5/18 
f 33/5/18 32/2/17 34/2/19 35/5/20 
f 35/5/20 34/2/19 36/2/21 37/5/22 
f 37/5/22 36/2/21 38/2/23 39/5/24 
f 39/5/24 38/2/23 40/2/25 41/5/26 
f 41/5/26 40/2/25 42/2/27 43/5/28 
f 43/5/28 42/2/27 44/2/29 45/5/30 
f 45/5/30 44/2/29 46/2/31 47/5/32 
f 48/5/33 49/2/34 50/2/35 51/5/36 
f 51/5/36 50/2/35 52/2/37 53/5/38 
f 53/5/38 52/2/37 54/2/39 55/5/40 
f 55/5/40 54/2/39 56/2/41 57/5/42 
f 57/5/42 56/2/41 58/2/43 59/5/44 
f 59/5/44 58/2/43 60/2/45 61/5/46 
f 61/5/46 60/2/45 62/2/47 63/5/48 
f 63/5/48 62/2/47 64/2/49 65/5/50 
f 65/5/50 64/2/49 66/2/51 67/5/52 
f 67/5/52 66/2/51 68/2/53 69/5/53 
f 70/1/54 49/2/34 46/2/31 71/1/55 
s 1
f 72/6/1 73/7/56 74/8/57 75/9/2 
f 25/5/1 72/6/1 75/9/2 76/10/2 
f 2/2/1 25/5/1 76/10/2 3/3/2 
f 77/11/2 78/12/57 79/13/56 80/14/1 
f 4/4/2 77/11/2 80/14/1 1/1/1 
s off
f 75/9/2 74/8/57 81/8/58 82/9/3 
f 76/10/2 75/9/2 82/9/3 83/10/3 
f 3/3/2 76/10/2 83/10/3 5/3/3 
f 84/11/3 85/12/58 78/12/57 77/11/2 
f 6/4/3 84/11/3 77/11/2 4/4/2 
f 82/9/3 81/8/58 86/8/59 87/9/4 
f 83/10/3 82/9/3 87/9/4 88/10/4 
f 5/3/3 83/10/3 88/10/4 7/3/4 
f 89/11/4 90/12/59 85/12/58 84/11/3 
f 8/4/4 89/11/4 84/11/3 6/4/3 
f 87/9/4 86/8/59 91/8/60 92/9/5 
f 88/10/4 87/9/4 92/9/5 93/10/5 
f 7/3/4 88/10/4 93/10/5 9/3/5 
f 94/11/5 95/12/60 90/12/59 89/11/4 
f 10/4/5 94/11/5 89/11/4 8/4/4 
f 92/9/5 91/8/60 96/8/61 97/9/6 
f 93/10/5 92/9/5 97/9/6 98/10/6 
f 9/3/5 93/10/5 98/10/6 11/3/6 
f 99/11/6 100/12/61 95/12/60 94/11/5 
f 12/4/6 99/11/6 94/11/5 10/4/5 
f 97/9/6 96/8/61 101/8/62 102/9/7 
f 98/10/6 97/9/6 102/9/7 103/10/7 
f 11/3/6 98/10/6 103/10/7 13/3/7 
f 104/11/7 105/12/62 100/12/61 99/11/6 
f 14/4/7 104/11/7 99/11/6 12/4/6 
f 102/9/7 101/8/62 106/8/63 107/9/8 
f 103/10/7 102/9/7 107/9/8 108/10/8 
f 13/3/7 103/10/7 108/10/8 15/3/8 
f 109/11/8 110/12/63 105/12/62 104/11/7 
f 16/4/8 109/11/8 104/11/7 14/4/7 
f 107/9/8 106/8/63 111/8/64 112/9/9 
f 108/10/8 107/9/8 112/9/9 113/10/9 
f 15/3/8 108/10/8 113/10/9 17/3/9 
f 114/11/9 115/12/64 110/12/63 109/11/8 
f 18/4/9 114/11/9 109/11/8 16/4/8 
f 112/9/9 111/8/64 116/8/65 117/9/10 
f 113/10/9 112/9/9 117/9/10 118/10/10 
f 17/3/9 113/10/9 118/10/10 19/3/10 
f 119/11/10 120/12/65 115/12/64 114/11/9 
f 20/4/10 119/11/10 114/11/9 18/4/9 
f 117/9/10 116/8/65 121/8/11 122/9/11 
f 118/10/10 117/9/10 122/9/11 123/10/11 
f 19/3/10 118/10/10 123/10/11 21/3/11 
f 124/11/11 125/12/11 120/12/65 119/11/10 
f 22/4/11 124/11/11 119/11/10 20/4/10 
f 122/9/11 121/8/11 126/8/12 127/9/12 
f 123/10/11 122/9/11 127/9/12 128/10/12 
f 21/3/11 123/10/11 128/10/12 23/3/12 
f 129/11/13 130/12/12 125/12/11 124/11/11 
f 24/4/13 129/11/13 124/11/11 22/4/11 
f 80/14/1 79/13/56 131/13/66 132/14/14 
f 1/1/1 80/14/1 132/14/14 133/1/14 
f 2/2/1 1/1/1 133/1/14 26/2/14 
f 134/6/14 135/7/66 73/7/56 72/6/1 
f 27/5/14 134/6/14 72/6/1 25/5/1 
f 132/14/14 131/13/66 136/13/67 137/14/15 
f 133/1/14 132/14/14 137/14/15 138/1/15 
f 26/2/14 133/1/14 138/1/15 28/2/15 
f 139/6/15 140/7/67 135/7/66 134/6/14 
f 29/5/15 139/6/15 134/6/14 27/5/14 
f 137/14/15 136/13/67 141/13/68 142/14/16 
f 138/1/15 137/14/15 142/14/16 143/1/16 
f 28/2/15 138/1/15 143/1/16 30/2/16 
f 144/6/16 145/7/68 140/7/67 139/6/15 
f 31/5/16 144/6/16 139/6/15 29/5/15 
f 142/14/16 141/13/68 146/13/69 147/14/70 
f 143/1/16 142/14/16 147/14/70 148/1/71 
f 30/2/16 143/1/16 148/1/71 32/2/17 
f 149/6/72 150/7/73 145/7/68 144/6/16 
f 33/5/18 149/6/72 144/6/16 31/5/16 
f 147/14/70 146/13/69 151/13/74 152/14/75 
f 148/1/71 147/14/70 152/14/75 153/1/76 
f 32/2/17 148/1/71 153/1/76 34/2/19 
f 154/6/77 155/7/78 150/7/73 149/6/72 
f 35/5/20 154/6/77 149/6/72 33/5/18 
f 152/14/75 151/13/74 156/13/79 157/14/80 
f 153/1/76 152/14/75 157/14/80 158/1/81 
f 34/2/19 153/1/76 158/1/81 36/2/21 
f 159/6/82 160/7/83 155/7/78 154/6/77 
f 37/5/22 159/6/82 154/6/77 35/5/20 
f 157/14/80 156/13/79 161/13/84 162/14/85 
f 158/1/81 157/14/80 162/14/85 163/1/86 
f 36/2/21 158/1/81 163/1/86 38/2/23 
f 164/6/87 165/7/88 160/7/83 159/6/82 
f 39/5/24 164/6/87 159/6/82 37/5/22 
f 162/14/85 161/13/84 166/13/89 167/14/90 
f 163/1/86 162/14/85 167/14/90 168/1/91 
f 38/2/23 163/1/86 168/1/91 40/2/25 
f 169/6/92 170/7/93 165/7/88 164/6/87 
f 41/5/26 169/6/92 164/6/87 39/5/24 
f 167/14/90 166/13/89 171/13/94 172/14/95 
f 168/1/91 167/14/90 172/14/95 173/1/96 
f 40/2/25 168/1/91 173/1/96 42/2/27 
f 174/6/97 175/7/98 170/7/93 169/6/92 
f 43/5/28 174/6/97 169/6/92 41/5/26 
f 172/14/95 171/13/94 176/13/99 177/14/100 
f 173/1/96 172/14/95 177/14/100 178/1/101 
f 42/2/27 173/1/96 178/1/101 44/2/29 
f 179/6/102 180/7/103 175/7/98 174/6/97 
f 45/5/30 179/6/102 174/6/97 43/5/28 
f 177/14/100 176/13/99 181/13/104 182/14/105 
f 178/1/101 177/14/100 182/14/105 71/1/55 
f 44/2/29 178/1/101 71/1/55 46/2/31 
f 183/6/106 184/7/107 180/7/103 179/6/102 
f 47/5/32 183/6/106 179/6/102 45/5/30 
f 185/14/108 186/13/109 187/13/110 188/14/111 
f 70/1/54 185/14/108 188/14/111 189/1/112 
f 49/2/34 70/1/54 189/1/112 50/2/35 
f 190/6/113 191/7/114 192/7/115 193/6/116 
f 51/5/36 190/6/113 193/6/116 48/5/33 
f 188/14/111 187/13/110 194/13/117 195/14/118 
f 189/1/112 188/14/111 195/14/118 196/1/119 
f 50/2/35 189/1/112 196/1/119 52/2/37 
f 197/6/120 198/7/121 191/7/114 190/6/113 
f 53/5/38 197/6/120 190/6/113 51/5/36 
f 195/14/118 194/13/117 199/13/122 200/14/123 
f 196/1/119 195/14/118 200/14/123 201/1/124 
f 52/2/37 196/1/119 201/1/124 54/2/39 
f 202/6/125 203/7/126 198/7/121 197/6/120 
f 55/5/40 202/6/125 197/6/120 53/5/38 
f 200/14/123 199/13/122 204/13/127 205/14/128 
f 201/1/124 200/14/123 205/14/128 206/1/129 
f 54/2/39 201/1/124 206/1/129 56/2/41 
f 207/6/130 208/7/131 203/7/126 202/6/125 
f 57/5/42 207/6/130 202/6/125 55/5/40 
f 205/14/128 204/13/127 209/13/132 210/14/133 
f 206/1/129 205/14/128 210/14/133 211/1/134 
f 56/2/41 206/1/129 211/1/134 58/2/43 
f 212/6/135 213/7/136 208/7/131 207/6/130 
f 59/5/44 212/6/135 207/6/130 57/5/42 
f 210/14/133 209/13/132 214/13/137 215/14/138 
f 211/1/134 210/14/133 215/14/138 216/1/139 
f 58/2/43 211/1/134 216/1/139 60/2/45 
f 217/6/140 218/7/141 213/7/136 212/6/135 
f 61/5/46 217/6/140 212/6/135 59/5/44 
f 215/14/138 214/13/137 219/13/142 220/14/143 
f 216/1/139 215/14/138 220/14/143 221/1/144 
f 60/2/45 216/1/139 221/1/144 62/2/47 
f 222/6/145 223/7/146 218/7/141 217/6/140 
f 63/5/48 222/6/145 217/6/140 61/5/46 
f 220/14/143 219/13/142 224/13/147 225/14/148 
f 221/1/144 220/14/143 225/14/148 226/1/149 
f 62/2/47 221/1/144 226/1/149 64/2/49 
f 227/6/150 228/7/151 223/7/146 222/6/145 
f 65/5/50 227/6/150 222/6/145 63/5/48 
f 225/14/148 224/13/147 229/13/152 230/14/153 
f 226/1/149 225/14/148 230/14/153 231/1/154 
f 64/2/49 226/1/149 231/1/154 66/2/51 
f 232/6/155 233/7/156 228/7/151 227/6/150 
f 67/5/52 232/6/155 227/6/150 65/5/50 
f 230/14/153 229/13/152 234/13/157 235/14/158 
f 231/1/154 230/14/153 235/14/158 236/1/53 
f 66/2/51 231/1/154 236/1/53 68/2/53 
f 237/6/159 238/7/157 233/7/156 232/6/155 
f 69/5/53 237/6/159 232/6/155 67/5/52 
f 193/6/116 192/7/115 184/7/107 183/6/106 
f 48/5/33 193/6/116 183/6/106 47/5/32 
f 49/2/34 48/5/33 47/5/32 46/2/31 
f 182/14/105 181/13/104 186/13/109 185/14/108 
f 71/1/55 182/14/105 185/14/108 70/1/54 
# 198 polygons

